<svg id="visual" viewBox="0 0 900 900" width="900" height="900" xmlns="http://www.w3.org/2000/svg" xmlns:xlink="http://www.w3.org/1999/xlink" version="1.1"><g transform="translate(475.2013590327488 411.69859071435894)"><path d="M240.6 -319.4C322.6 -321.7 407.4 -273.2 421 -203.9C434.6 -134.5 377.2 -44.3 334.3 27.1C291.5 98.5 263.3 151.1 235 228.7C206.7 306.2 178.5 408.8 118.3 446.2C58.2 483.6 -33.7 455.8 -93.3 400.4C-152.8 345.1 -179.9 262.3 -241 202.7C-302 143.2 -397 107 -441.5 41C-485.9 -25 -479.9 -120.7 -448.6 -211.4C-417.3 -302 -360.7 -387.6 -281.7 -386.7C-202.7 -385.8 -101.4 -298.4 -11 -281.2C79.3 -264 158.6 -317.1 240.6 -319.4" fill="#8e3116"></path></g></svg>