<svg id="visual" viewBox="0 0 900 600" width="900" height="600" xmlns="http://www.w3.org/2000/svg" xmlns:xlink="http://www.w3.org/1999/xlink" version="1.1"><g stroke-width="1" stroke-linejoin="bevel"><path d="M432 274.1L359 318.9L451 342.9Z" fill="#5e210f" stroke="#5e210f"></path><path d="M361 411.6L455 399.6L451 342.9Z" fill="#672411" stroke="#672411"></path><path d="M432 274.1L336 242.1L359 318.9Z" fill="#5e210f" stroke="#5e210f"></path><path d="M270 327.9L361 411.6L359 318.9Z" fill="#b43f1d" stroke="#b43f1d"></path><path d="M359 318.9L361 411.6L451 342.9Z" fill="#aa3b1b" stroke="#aa3b1b"></path><path d="M451 342.9L502 236.1L432 274.1Z" fill="#b43f1d" stroke="#b43f1d"></path><path d="M432 274.1L418 145.4L336 242.1Z" fill="#5e210f" stroke="#5e210f"></path><path d="M576 349.9L502 236.1L451 342.9Z" fill="#8d3117" stroke="#8d3117"></path><path d="M336 242.1L270 327.9L359 318.9Z" fill="#b43f1d" stroke="#b43f1d"></path><path d="M270 327.9L306 445.6L361 411.6Z" fill="#5e210f" stroke="#5e210f"></path><path d="M361 411.6L462 477.3L455 399.6Z" fill="#832e15" stroke="#832e15"></path><path d="M344 550.3L462 477.3L361 411.6Z" fill="#8d3117" stroke="#8d3117"></path><path d="M565 397.6L576 349.9L451 342.9Z" fill="#a0381a" stroke="#a0381a"></path><path d="M565 397.6L451 342.9L455 399.6Z" fill="#672411" stroke="#672411"></path><path d="M502 236.1L418 145.4L432 274.1Z" fill="#832e15" stroke="#832e15"></path><path d="M648 224.1L504 172.4L502 236.1Z" fill="#8d3117" stroke="#8d3117"></path><path d="M502 236.1L504 172.4L418 145.4Z" fill="#973418" stroke="#973418"></path><path d="M462 477.3L565 397.6L455 399.6Z" fill="#832e15" stroke="#832e15"></path><path d="M330 146.4L286 188.4L336 242.1Z" fill="#aa3b1b" stroke="#aa3b1b"></path><path d="M336 242.1L247 220.1L270 327.9Z" fill="#b43f1d" stroke="#b43f1d"></path><path d="M418 145.4L330 146.4L336 242.1Z" fill="#5e210f" stroke="#5e210f"></path><path d="M144 249.1L247 220.1L148 206.4Z" fill="#5e210f" stroke="#5e210f"></path><path d="M286 188.4L247 220.1L336 242.1Z" fill="#973418" stroke="#973418"></path><path d="M546 89.7L484 113.7L504 172.4Z" fill="#832e15" stroke="#832e15"></path><path d="M504 172.4L484 113.7L418 145.4Z" fill="#973418" stroke="#973418"></path><path d="M418 145.4L342 85.7L330 146.4Z" fill="#8d3117" stroke="#8d3117"></path><path d="M144 249.1L197 370.9L270 327.9Z" fill="#a0381a" stroke="#a0381a"></path><path d="M270 327.9L197 370.9L306 445.6Z" fill="#a0381a" stroke="#a0381a"></path><path d="M184 397.6L298 511.3L306 445.6Z" fill="#8d3117" stroke="#8d3117"></path><path d="M306 445.6L344 550.3L361 411.6Z" fill="#b43f1d" stroke="#b43f1d"></path><path d="M72 364.9L184 397.6L197 370.9Z" fill="#a0381a" stroke="#a0381a"></path><path d="M197 370.9L184 397.6L306 445.6Z" fill="#832e15" stroke="#832e15"></path><path d="M424 0L342 85.7L418 145.4Z" fill="#aa3b1b" stroke="#aa3b1b"></path><path d="M330 146.4L232 77.7L286 188.4Z" fill="#8d3117" stroke="#8d3117"></path><path d="M298 511.3L344 550.3L306 445.6Z" fill="#5e210f" stroke="#5e210f"></path><path d="M416 600L513 537.3L462 477.3Z" fill="#be421e" stroke="#be421e"></path><path d="M462 477.3L513 537.3L565 397.6Z" fill="#aa3b1b" stroke="#aa3b1b"></path><path d="M665 356.9L648 224.1L576 349.9Z" fill="#5e210f" stroke="#5e210f"></path><path d="M576 349.9L648 224.1L502 236.1Z" fill="#8d3117" stroke="#8d3117"></path><path d="M665 356.9L576 349.9L666 404.6Z" fill="#aa3b1b" stroke="#aa3b1b"></path><path d="M666 404.6L576 349.9L565 397.6Z" fill="#5e210f" stroke="#5e210f"></path><path d="M645 164.4L546 89.7L504 172.4Z" fill="#973418" stroke="#973418"></path><path d="M484 113.7L424 0L418 145.4Z" fill="#672411" stroke="#672411"></path><path d="M664 503.3L666 404.6L565 397.6Z" fill="#7a2b14" stroke="#7a2b14"></path><path d="M148 206.4L247 220.1L197 90.7Z" fill="#8d3117" stroke="#8d3117"></path><path d="M247 220.1L144 249.1L270 327.9Z" fill="#5e210f" stroke="#5e210f"></path><path d="M663 116.7L645 164.4L714 192.4Z" fill="#be421e" stroke="#be421e"></path><path d="M648 224.1L645 164.4L504 172.4Z" fill="#5e210f" stroke="#5e210f"></path><path d="M344 550.3L416 600L462 477.3Z" fill="#973418" stroke="#973418"></path><path d="M197 90.7L247 220.1L286 188.4Z" fill="#be421e" stroke="#be421e"></path><path d="M344 550.3L343 600L416 600Z" fill="#7a2b14" stroke="#7a2b14"></path><path d="M262 600L343 600L344 550.3Z" fill="#973418" stroke="#973418"></path><path d="M262 600L344 550.3L298 511.3Z" fill="#672411" stroke="#672411"></path><path d="M300 0L232 77.7L342 85.7Z" fill="#7a2b14" stroke="#7a2b14"></path><path d="M342 85.7L232 77.7L330 146.4Z" fill="#a0381a" stroke="#a0381a"></path><path d="M416 600L522 600L513 537.3Z" fill="#a0381a" stroke="#a0381a"></path><path d="M513 537.3L664 503.3L565 397.6Z" fill="#aa3b1b" stroke="#aa3b1b"></path><path d="M232 77.7L197 90.7L286 188.4Z" fill="#be421e" stroke="#be421e"></path><path d="M599 600L664 503.3L513 537.3Z" fill="#973418" stroke="#973418"></path><path d="M72 364.9L125 458.6L184 397.6Z" fill="#b43f1d" stroke="#b43f1d"></path><path d="M184 397.6L164 538.3L298 511.3Z" fill="#973418" stroke="#973418"></path><path d="M553 0L424 0L484 113.7Z" fill="#b43f1d" stroke="#b43f1d"></path><path d="M232 77.7L191 0L197 90.7Z" fill="#7a2b14" stroke="#7a2b14"></path><path d="M164 538.3L262 600L298 511.3Z" fill="#832e15" stroke="#832e15"></path><path d="M666 404.6L729 320.9L665 356.9Z" fill="#5e210f" stroke="#5e210f"></path><path d="M665 356.9L729 320.9L648 224.1Z" fill="#7a2b14" stroke="#7a2b14"></path><path d="M708 460.6L729 320.9L666 404.6Z" fill="#5e210f" stroke="#5e210f"></path><path d="M645 164.4L663 116.7L546 89.7Z" fill="#832e15" stroke="#832e15"></path><path d="M546 89.7L553 0L484 113.7Z" fill="#aa3b1b" stroke="#aa3b1b"></path><path d="M714 192.4L645 164.4L648 224.1Z" fill="#702712" stroke="#702712"></path><path d="M424 0L329 0L342 85.7Z" fill="#672411" stroke="#672411"></path><path d="M125 458.6L164 538.3L184 397.6Z" fill="#672411" stroke="#672411"></path><path d="M745 292.1L714 192.4L648 224.1Z" fill="#aa3b1b" stroke="#aa3b1b"></path><path d="M664 503.3L708 460.6L666 404.6Z" fill="#aa3b1b" stroke="#aa3b1b"></path><path d="M329 0L300 0L342 85.7Z" fill="#8d3117" stroke="#8d3117"></path><path d="M729 320.9L745 292.1L648 224.1Z" fill="#702712" stroke="#702712"></path><path d="M812 379.9L745 292.1L729 320.9Z" fill="#b43f1d" stroke="#b43f1d"></path><path d="M144 249.1L72 364.9L197 370.9Z" fill="#702712" stroke="#702712"></path><path d="M121 600L144 600L164 538.3Z" fill="#672411" stroke="#672411"></path><path d="M54 224.1L72 364.9L144 249.1Z" fill="#7a2b14" stroke="#7a2b14"></path><path d="M54 224.1L144 249.1L148 206.4Z" fill="#5e210f" stroke="#5e210f"></path><path d="M522 600L599 600L513 537.3Z" fill="#b43f1d" stroke="#b43f1d"></path><path d="M664 503.3L755 521.3L708 460.6Z" fill="#973418" stroke="#973418"></path><path d="M644 0L553 0L546 89.7Z" fill="#702712" stroke="#702712"></path><path d="M714 192.4L690 106.7L663 116.7Z" fill="#672411" stroke="#672411"></path><path d="M663 116.7L644 0L546 89.7Z" fill="#a0381a" stroke="#a0381a"></path><path d="M800 168.4L690 106.7L714 192.4Z" fill="#973418" stroke="#973418"></path><path d="M73 139.4L54 224.1L148 206.4Z" fill="#5e210f" stroke="#5e210f"></path><path d="M197 90.7L73 139.4L148 206.4Z" fill="#672411" stroke="#672411"></path><path d="M57 57.7L73 139.4L197 90.7Z" fill="#832e15" stroke="#832e15"></path><path d="M300 0L191 0L232 77.7Z" fill="#973418" stroke="#973418"></path><path d="M61 517.3L164 538.3L125 458.6Z" fill="#702712" stroke="#702712"></path><path d="M164 538.3L144 600L262 600Z" fill="#702712" stroke="#702712"></path><path d="M690 106.7L644 0L663 116.7Z" fill="#aa3b1b" stroke="#aa3b1b"></path><path d="M0 457.6L125 458.6L72 364.9Z" fill="#5e210f" stroke="#5e210f"></path><path d="M0 457.6L61 517.3L125 458.6Z" fill="#8d3117" stroke="#8d3117"></path><path d="M695 600L755 521.3L664 503.3Z" fill="#973418" stroke="#973418"></path><path d="M708 460.6L812 379.9L729 320.9Z" fill="#7a2b14" stroke="#7a2b14"></path><path d="M599 600L695 600L664 503.3Z" fill="#aa3b1b" stroke="#aa3b1b"></path><path d="M61 517.3L121 600L164 538.3Z" fill="#be421e" stroke="#be421e"></path><path d="M832 453.6L812 379.9L708 460.6Z" fill="#7a2b14" stroke="#7a2b14"></path><path d="M745 292.1L810 240.1L714 192.4Z" fill="#b43f1d" stroke="#b43f1d"></path><path d="M690 106.7L741 0L644 0Z" fill="#7a2b14" stroke="#7a2b14"></path><path d="M812 379.9L810 240.1L745 292.1Z" fill="#5e210f" stroke="#5e210f"></path><path d="M54 224.1L0 348.9L72 364.9Z" fill="#5e210f" stroke="#5e210f"></path><path d="M0 232.1L0 348.9L54 224.1Z" fill="#832e15" stroke="#832e15"></path><path d="M0 168.4L0 232.1L54 224.1Z" fill="#672411" stroke="#672411"></path><path d="M810 240.1L800 168.4L714 192.4Z" fill="#973418" stroke="#973418"></path><path d="M0 348.9L0 457.6L72 364.9Z" fill="#7a2b14" stroke="#7a2b14"></path><path d="M61 517.3L0 600L121 600Z" fill="#702712" stroke="#702712"></path><path d="M0 49.7L0 168.4L73 139.4Z" fill="#832e15" stroke="#832e15"></path><path d="M73 139.4L0 168.4L54 224.1Z" fill="#aa3b1b" stroke="#aa3b1b"></path><path d="M89 0L57 57.7L197 90.7Z" fill="#be421e" stroke="#be421e"></path><path d="M755 521.3L832 453.6L708 460.6Z" fill="#832e15" stroke="#832e15"></path><path d="M812 379.9L900 266.1L810 240.1Z" fill="#973418" stroke="#973418"></path><path d="M845 506.3L832 453.6L755 521.3Z" fill="#832e15" stroke="#832e15"></path><path d="M0 457.6L0 496.3L61 517.3Z" fill="#832e15" stroke="#832e15"></path><path d="M191 0L89 0L197 90.7Z" fill="#702712" stroke="#702712"></path><path d="M818 104.7L741 0L690 106.7Z" fill="#702712" stroke="#702712"></path><path d="M900 119.7L818 104.7L800 168.4Z" fill="#672411" stroke="#672411"></path><path d="M800 168.4L818 104.7L690 106.7Z" fill="#be421e" stroke="#be421e"></path><path d="M900 208.4L800 168.4L810 240.1Z" fill="#702712" stroke="#702712"></path><path d="M807 600L845 506.3L755 521.3Z" fill="#672411" stroke="#672411"></path><path d="M900 397.6L900 356.9L812 379.9Z" fill="#5e210f" stroke="#5e210f"></path><path d="M818 104.7L778 0L741 0Z" fill="#672411" stroke="#672411"></path><path d="M695 600L807 600L755 521.3Z" fill="#5e210f" stroke="#5e210f"></path><path d="M57 57.7L0 49.7L73 139.4Z" fill="#672411" stroke="#672411"></path><path d="M0 0L0 49.7L57 57.7Z" fill="#832e15" stroke="#832e15"></path><path d="M900 397.6L812 379.9L832 453.6Z" fill="#672411" stroke="#672411"></path><path d="M900 356.9L900 266.1L812 379.9Z" fill="#a0381a" stroke="#a0381a"></path><path d="M818 104.7L900 0L778 0Z" fill="#aa3b1b" stroke="#aa3b1b"></path><path d="M0 496.3L0 600L61 517.3Z" fill="#7a2b14" stroke="#7a2b14"></path><path d="M900 492.3L900 397.6L832 453.6Z" fill="#973418" stroke="#973418"></path><path d="M900 492.3L832 453.6L845 506.3Z" fill="#be421e" stroke="#be421e"></path><path d="M900 266.1L900 208.4L810 240.1Z" fill="#b43f1d" stroke="#b43f1d"></path><path d="M89 0L0 0L57 57.7Z" fill="#973418" stroke="#973418"></path><path d="M900 600L900 492.3L845 506.3Z" fill="#aa3b1b" stroke="#aa3b1b"></path><path d="M900 208.4L900 119.7L800 168.4Z" fill="#832e15" stroke="#832e15"></path><path d="M807 600L900 600L845 506.3Z" fill="#8d3117" stroke="#8d3117"></path><path d="M900 119.7L900 0L818 104.7Z" fill="#b43f1d" stroke="#b43f1d"></path></g></svg>