<svg id="visual" viewBox="0 0 1000 150" width="1000" height="150" xmlns="http://www.w3.org/2000/svg" xmlns:xlink="http://www.w3.org/1999/xlink" version="1.1"><path d="M0 136L13.8 127.5C27.7 119 55.3 102 83.2 97.3C111 92.7 139 100.3 166.8 103.8C194.7 107.3 222.3 106.7 250 109C277.7 111.3 305.3 116.7 333.2 117.3C361 118 389 114 416.8 111.2C444.7 108.3 472.3 106.7 500 105.5C527.7 104.3 555.3 103.7 583.2 105.2C611 106.7 639 110.3 666.8 114.8C694.7 119.3 722.3 124.7 750 122C777.7 119.3 805.3 108.7 833.2 109.8C861 111 889 124 916.8 124C944.7 124 972.3 111 986.2 104.5L1000 98L1000 0L986.2 0C972.3 0 944.7 0 916.8 0C889 0 861 0 833.2 0C805.3 0 777.7 0 750 0C722.3 0 694.7 0 666.8 0C639 0 611 0 583.2 0C555.3 0 527.7 0 500 0C472.3 0 444.7 0 416.8 0C389 0 361 0 333.2 0C305.3 0 277.7 0 250 0C222.3 0 194.7 0 166.8 0C139 0 111 0 83.2 0C55.3 0 27.7 0 13.8 0L0 0Z" fill="#be421e"></path><path d="M0 65L13.8 69.5C27.7 74 55.3 83 83.2 83.7C111 84.3 139 76.7 166.8 77.7C194.7 78.7 222.3 88.3 250 89C277.7 89.7 305.3 81.3 333.2 81.7C361 82 389 91 416.8 96C444.7 101 472.3 102 500 97.5C527.7 93 555.3 83 583.2 76.7C611 70.3 639 67.7 666.8 69C694.7 70.3 722.3 75.7 750 82C777.7 88.3 805.3 95.7 833.2 98.2C861 100.7 889 98.3 916.8 97.5C944.7 96.7 972.3 97.3 986.2 97.7L1000 98L1000 0L986.2 0C972.3 0 944.7 0 916.8 0C889 0 861 0 833.2 0C805.3 0 777.7 0 750 0C722.3 0 694.7 0 666.8 0C639 0 611 0 583.2 0C555.3 0 527.7 0 500 0C472.3 0 444.7 0 416.8 0C389 0 361 0 333.2 0C305.3 0 277.7 0 250 0C222.3 0 194.7 0 166.8 0C139 0 111 0 83.2 0C55.3 0 27.7 0 13.8 0L0 0Z" fill="#de8265"></path><path d="M0 61L13.8 61.2C27.7 61.3 55.3 61.7 83.2 57.5C111 53.3 139 44.7 166.8 47.5C194.7 50.3 222.3 64.7 250 68.7C277.7 72.7 305.3 66.3 333.2 63.3C361 60.3 389 60.7 416.8 62.8C444.7 65 472.3 69 500 72.3C527.7 75.7 555.3 78.3 583.2 77.8C611 77.3 639 73.7 666.8 72.3C694.7 71 722.3 72 750 72C777.7 72 805.3 71 833.2 72.5C861 74 889 78 916.8 78C944.7 78 972.3 74 986.2 72L1000 70L1000 0L986.2 0C972.3 0 944.7 0 916.8 0C889 0 861 0 833.2 0C805.3 0 777.7 0 750 0C722.3 0 694.7 0 666.8 0C639 0 611 0 583.2 0C555.3 0 527.7 0 500 0C472.3 0 444.7 0 416.8 0C389 0 361 0 333.2 0C305.3 0 277.7 0 250 0C222.3 0 194.7 0 166.8 0C139 0 111 0 83.2 0C55.3 0 27.7 0 13.8 0L0 0Z" fill="#f4c0af"></path><path d="M0 43L13.8 44C27.7 45 55.3 47 83.2 44.3C111 41.7 139 34.3 166.8 29C194.7 23.7 222.3 20.3 250 21.5C277.7 22.7 305.3 28.3 333.2 34.2C361 40 389 46 416.8 47.8C444.7 49.7 472.3 47.3 500 42.3C527.7 37.3 555.3 29.7 583.2 24C611 18.3 639 14.7 666.8 19.5C694.7 24.3 722.3 37.7 750 39.8C777.7 42 805.3 33 833.2 32.3C861 31.7 889 39.3 916.8 43.2C944.7 47 972.3 47 986.2 47L1000 47L1000 0L986.2 0C972.3 0 944.7 0 916.8 0C889 0 861 0 833.2 0C805.3 0 777.7 0 750 0C722.3 0 694.7 0 666.8 0C639 0 611 0 583.2 0C555.3 0 527.7 0 500 0C472.3 0 444.7 0 416.8 0C389 0 361 0 333.2 0C305.3 0 277.7 0 250 0C222.3 0 194.7 0 166.8 0C139 0 111 0 83.2 0C55.3 0 27.7 0 13.8 0L0 0Z" fill="#ffffff"></path></svg>